<svg xmlns="http://www.w3.org/2000/svg" xml:space="preserve" id="Layer_1" x="0" y="0" version="1.1" viewBox="0 0 1800 630">
  <path fill="#9596ae" d="M121.5 480h18.2v-19.5h8v47.7h-8V487h-18.2v21.2h-8v-47.7h8V480zm54.4 28.8c-10.6 0-17.8-6.4-17.8-21.5v-6.2c0-15.1 7.2-21.5 17.8-21.5 10.6 0 18 6.4 18 21.5v6.2c-.2 15.1-7.4 21.5-18 21.5zm-9.9-21.5c0 10.4 3.4 14.4 9.8 14.4 6.3 0 9.8-4.1 9.8-14.4v-6.2c0-10.4-3.5-14.4-9.8-14.4s-9.8 4.1-9.8 14.4v6.2zm59.4.8 13.8-27.6h7.7v47.7h-7.7v-31.8L228.3 499h-5.6L212 476.5v31.7h-7.7v-47.7h7.6l13.5 27.6zm62.8-27.7v6.9H267V480h19.1v6.9H267v14.3h21.2v6.9H259v-47.7h29.2zm24.6 0c11.3 0 16.9 4.1 16.9 12.3.1 4.6-2.6 8.8-6.9 10.4 5.4 1.6 8.5 5.2 8.5 11.3 0 7.2-4.6 13.6-16.9 13.6h-16.8v-47.6h15.2zm-7.3 19.6h7.7c5.9 0 8.4-2.6 8.4-6.7 0-3.8-2-5.9-9.4-5.9h-6.7V480zm0 21.2h8.4c6.4 0 9.4-2.6 9.4-7.2 0-5-3.3-7.2-10.4-7.2h-7.3v14.4h-.1zm61.8 6.9-9.2-19.4H349v19.4h-8v-47.7h16.2c11 0 17.6 4.7 17.6 14.3 0 6.6-3.1 10.7-8.6 12.8l10.1 20.7-9-.1zm-10.7-26.2c6.8 0 10.1-1.8 10.1-7.2s-3.3-7.2-10.1-7.2h-7.7v14.4h7.7zm36.9 26.2h-8v-47.7h8v47.7zm12.9 0v-47.7h16.1c10.7 0 18 5.8 18 21v5.6c0 15.2-7.2 21-18 21l-16.1.1zm25.9-21.1v-5.6c0-9.8-3-14-9.8-14h-8.1v33.8h8.1c6.8 0 9.8-4.2 9.8-14.2zm51.8-3.4v3.7c0 15.1-6.8 21.5-17.6 21.5-10.7 0-17.8-6.4-17.8-21.5v-5.8c0-15.3 7.2-21.8 17.8-21.8 9.7 0 15.9 5.4 17.3 15.5h-7.7c-1.2-5.5-4.2-8.4-9.6-8.4-6.3 0-9.8 4.1-9.8 14.4v6.2c0 10.4 3.4 14.4 9.8 14.4 6.2 0 9.2-3.5 9.7-11.1h-9.4v-7.1h17.3zm39.4-23.2v6.9h-21.2V480h19.1v6.9h-19.1v14.3h21.2v6.9h-29.2v-47.7h29.2z"/>
  <linearGradient id="SVGID_1_" x1="1603.5344" x2="1603.5344" y1="-153.3189" y2="-433.4658" gradientTransform="matrix(1 0 0 -1 -1285.1 -32)" gradientUnits="userSpaceOnUse">
    <stop offset="0" stop-color="#57277c"/>
    <stop offset="1" stop-color="#491f59"/>
  </linearGradient>
  <circle cx="318.4" cy="261.4" r="140.1" fill="url(#SVGID_1_)"/>
  <radialGradient id="SVGID_00000119108029548475772680000015532114751273057724_" cx="1603.5344" cy="-293.3923" r="140.0735" gradientTransform="matrix(1 0 0 -1 -1285.1 -32)" gradientUnits="userSpaceOnUse">
    <stop offset="0" stop-opacity="0"/>
    <stop offset="1" stop-opacity=".1"/>
  </radialGradient>
  <circle cx="318.4" cy="261.4" r="140.1" fill="url(#SVGID_00000119108029548475772680000015532114751273057724_)"/>
  <path fill="#fff" d="m413.6 247.1-17.3-17.2c-.5-.7-.9-1.4-.9-2.4v-39.4c0-8.4-6.8-15.1-15.2-15.2h-10.7c-8.4 0-15.2 6.8-15.2 15.2v.3L329 163.9c-6-5.6-15.5-5.6-21.4.3l-85.7 85.7c-5.9 5.9-5.9 15.6 0 21.5l8.1 8c5.9 5.9 15.5 5.9 21.4.1l65.8-64.7c1.3-1.3 3.4-1.3 4.7 0l64.5 64.5c1.3 1.3 1.3 3.4 0 4.7l-8 8c-1.3 1.3-3.4 1.3-4.7 0l-45.3-44c-6-5.8-15.5-5.6-21.4.3l-43.5 43.6c-5.9 5.9-5.9 15.5 0 21.5l8 8c5.9 5.9 15.5 5.9 21.4 0l23.3-23.2c1.3-1.3 3.4-1.3 4.7 0l23.3 22.9c1.3 1.3 1.3 3.3 0 4.7l-23.1 23.3c-.1 0-.3-.1-.4-.1-4.7 0-8.6 3.8-8.6 8.6s3.8 8.6 8.6 8.6c4.7 0 8.6-3.8 8.6-8.6v-.1l23.2-23.2c5.9-5.9 5.9-15.6 0-21.5l-.1-.1-23.3-22.9c-5.9-5.8-15.3-5.8-21.4 0L284.8 313c-1.3 1.3-3.4 1.3-4.7 0l-8-8c-1.3-1.3-1.3-3.4 0-4.7l43.5-43.6c1.3-1.3 3.4-1.3 4.7 0l45.2 44c6 5.8 15.5 5.6 21.4-.1l8-8c5.9-5.9 5.9-15.6 0-21.5l-64.6-64.6c-5.9-5.9-15.5-5.9-21.4-.1l-65.8 64.7c-1.3 1.3-3.4 1.3-4.7 0l-8.1-8c-1.3-1.3-1.3-3.4 0-4.7l85.7-85.7c1.3-1.3 3.4-1.3 4.7 0l45.3 43.9v-28.3c0-1.8 1.4-3.3 3.3-3.3h10.6c1.8 0 3.3 1.4 3.3 3.3v39.6c0 4.1 1.6 8 4.5 10.7l17 17c0 .1-.1.3-.1.4 0 4.7 3.8 8.6 8.6 8.6 4.7 0 8.6-3.8 8.6-8.6.4-5-3.5-8.8-8.2-8.9z"/>
  <path fill="none" stroke="#9596ae" stroke-linecap="round" stroke-miterlimit="10" stroke-width="5" d="M699.5 92.4 628.4 537"/>
  <path fill="#2c82c9" d="M1058.9 356.4c-1.5 0-2.8-.5-3.9-1.3s-1.3-2.2-1.3-3.7v-63.2c0-1.5.5-2.8 1.3-3.9s2.2-1.3 3.9-1.3c1.5 0 2.7.5 3.7 1.3 1.1.8 1.3 2.2 1.3 3.9v63.1c0 1.5-.5 2.7-1.3 3.7-1 1-2.3 1.4-3.7 1.4zm57.7 0c-1.5 0-2.8-.5-3.7-1.5-1.1-1.1-1.5-2.2-1.5-3.5v-35c0-5.4-1.1-10.1-3.2-13.7-2-3.5-4.9-6.3-8.6-8-3.5-1.8-7.8-2.7-12.3-2.7-4.4 0-8.4.8-11.9 2.5-3.5 1.5-6.3 4-8.4 7.1-2 3-3.2 6.3-3.2 10.1h-7.3c.1-5.7 1.5-10.7 4.6-15.1 2.8-4.5 6.7-7.9 11.3-10.5 4.7-2.5 10-3.9 15.8-3.9 6.4 0 12 1.3 17 4 5.1 2.7 9 6.6 11.9 11.7 2.8 5.1 4.4 11.3 4.4 18.6v34.9c0 1.5-.5 2.7-1.5 3.5-.7.9-2 1.5-3.4 1.5zm46.4 0c-1.5 0-2.8-.5-3.9-1.3s-1.3-2.2-1.3-3.7v-63.2c0-1.5.5-2.8 1.3-3.9s2.2-1.3 3.9-1.3c1.5 0 2.7.5 3.7 1.3 1.1.8 1.3 2.2 1.3 3.9v63.1c0 1.5-.5 2.7-1.3 3.7s-2 1.4-3.7 1.4zm57.8 0c-1.5 0-2.8-.5-3.7-1.5-1.1-1.1-1.5-2.2-1.5-3.5v-35c0-5.4-1.1-10.1-3.2-13.7-2-3.5-4.9-6.3-8.6-8-3.5-1.8-7.8-2.7-12.3-2.7-4.4 0-8.4.8-11.9 2.5-3.5 1.5-6.3 4-8.4 7.1-2 3-3.2 6.3-3.2 10.1h-7.3c.1-5.7 1.5-10.7 4.6-15.1 2.8-4.5 6.7-7.9 11.3-10.5 4.7-2.5 10-3.9 15.8-3.9 6.4 0 12 1.3 17 4 5.1 2.7 9 6.6 11.9 11.7 2.8 5.1 4.4 11.3 4.4 18.6v34.9c0 1.5-.5 2.7-1.5 3.5-.7.9-2 1.5-3.4 1.5zm74.6.5c-7.3 0-13.7-1.5-19.2-4.7-5.7-3.2-10-7.6-13.1-13.2-3.2-5.7-4.7-12-4.7-19.3 0-7.3 1.5-13.9 4.5-19.3s7.1-10 12.4-13.2c5.2-3.2 11.3-4.7 18.3-4.7 6.8 0 12.7 1.5 17.8 4.6 5.1 3.2 9 7.3 11.8 12.7s4.1 11.7 4.1 18.6c0 1.5-.5 2.5-1.3 3.4-.8.9-2 1.3-3.4 1.3h-57.1v-8.6h58.1l-5.8 4.1c.1-5.2-.8-9.8-2.8-14-1.9-4.1-4.7-7.3-8.4-9.7-3.5-2.4-7.9-3.4-13-3.4s-9.5 1.2-13.4 3.5c-3.9 2.4-6.8 5.8-9 10-2 4.4-3.2 9.1-3.2 14.6 0 5.4 1.2 10.3 3.5 14.4 2.4 4.1 5.7 7.4 9.7 10 4.1 2.4 8.8 3.5 14.2 3.5 3.2 0 6.4-.6 9.7-1.5 3.2-1.2 5.8-2.5 7.9-4.1 1.1-.7 2-1.2 3.4-1.3 1.2 0 2.4.2 3.2 1.1 1.2 1.1 1.8 2.2 1.8 3.4 0 1.2-.5 2.4-1.5 3.2-3 2.5-6.7 4.6-11.3 6.3-4.7 1.7-8.9 2.3-13.2 2.3zm92.5 0c-7.1 0-13.4-1.5-18.8-4.9-5.4-3.3-9.8-7.8-13-13.4-3.2-5.6-4.7-11.9-4.7-19.1 0-7.1 1.5-13.6 4.6-19.2 3-5.7 7.1-10.1 12.5-13.4 5.2-3.2 11.3-4.9 18.3-4.9 5.4 0 10.5 1.1 15.1 3.2 4.6 2 8.6 5.4 12 9.7 1.1 1.1 1.3 2.2 1.1 3.4-.2 1.2-1.1 2.2-2.2 3.2-1.1.7-2 .8-3.2.7-1.2-.1-2.2-.8-3.2-1.9-5.2-5.9-11.8-8.8-19.6-8.8-5.1 0-9.3 1.2-13.2 3.5-3.9 2.4-6.7 5.7-8.8 10-2 4.1-3.2 9.1-3.2 14.4 0 5.4 1.2 10.1 3.4 14.4 2.2 4.1 5.4 7.4 9.3 10 4 2.5 8.6 3.5 13.9 3.5 3.4 0 6.7-.5 9.5-1.3s5.4-2.4 7.8-4.4c1.1-.8 2.2-1.3 3.4-1.5 1.2-.1 2.2.2 3.2 1.1 1.1 1.1 1.5 2 1.8 3.4.1 1.2-.2 2.4-1.3 3.2-6.8 6.3-14.9 9.1-24.7 9.1zm55.9-62.2c-1.3 0-2.5-.5-3.4-1.3-.8-.8-1.3-1.9-1.3-3.2 0-1.3.5-2.4 1.3-3.2.8-.8 1.9-1.3 3.4-1.3h34.2c1.3 0 2.5.5 3.4 1.3.8.8 1.3 1.9 1.3 3.2 0 1.2-.5 2.2-1.3 3.2-.8.8-1.9 1.3-3.4 1.3h-34.2zm33.5 61.7c-4.7 0-9-1.2-12.7-3.4-3.7-2.2-6.7-5.4-8.8-9.3-2-3.9-3.2-8.4-3.2-13.4v-65.6c0-1.5.5-2.8 1.3-3.7.8-1.1 2.2-1.5 3.7-1.5s2.8.5 3.7 1.5c1.1 1.1 1.5 2.2 1.5 3.7v65.6c0 4.6 1.3 8.4 4 11.2 2.7 3 6.1 4.4 10.3 4.4h3.5c1.5 0 2.5.5 3.4 1.5.8 1.1 1.3 2.2 1.3 3.7s-.6 2.7-1.5 3.7c-1.1.8-2.4 1.3-4 1.3h-2.5v.3zm71.9.5c-7.3 0-13.7-1.5-19.2-4.7-5.7-3.2-10-7.6-13.1-13.2-3.2-5.7-4.7-12-4.7-19.3 0-7.3 1.5-13.9 4.5-19.3s7.1-10 12.4-13.2c5.2-3.2 11.3-4.7 18.3-4.7 6.9 0 12.7 1.5 17.8 4.6 5.1 3.2 9 7.3 11.8 12.7s4.1 11.7 4.1 18.6c0 1.5-.5 2.5-1.3 3.4-.8.8-2 1.3-3.4 1.3h-57.1v-8.6h58.1l-5.8 4.1c.1-5.2-.8-9.8-2.8-14-1.9-4.1-4.7-7.3-8.4-9.7-3.5-2.4-7.9-3.4-13-3.4s-9.5 1.2-13.4 3.5c-3.9 2.4-6.8 5.8-9 10-2 4.4-3.2 9.1-3.2 14.6 0 5.4 1.2 10.3 3.5 14.4 2.4 4.1 5.7 7.4 9.7 10 4.1 2.4 8.8 3.5 14.2 3.5 3.2 0 6.4-.6 9.7-1.5 3.2-1.2 5.8-2.5 7.9-4.1 1.1-.7 2-1.2 3.4-1.3 1.2 0 2.4.2 3.2 1.1 1.2 1.1 1.8 2.2 1.8 3.4 0 1.2-.5 2.4-1.5 3.2-3 2.5-6.7 4.6-11.3 6.3-4.7 1.7-9.1 2.3-13.2 2.3zm93.1 0c-7.1 0-13.4-1.5-19.1-4.9-5.7-3.2-10.1-7.8-13.4-13.4-3.2-5.7-4.9-12-4.9-19.2 0-7.1 1.5-13.4 4.7-19.1 3.2-5.7 7.4-10.1 13-13.4 5.4-3.2 11.7-4.9 18.5-4.9 5.9 0 11.3 1.3 16.3 3.9 4.7 2.5 8.6 5.9 11.7 10.1v-39.1c0-1.5.5-2.8 1.5-3.9 1.1-1.1 2.2-1.3 3.7-1.3s2.8.5 3.7 1.3c1.1.8 1.5 2.2 1.5 3.9v63.3c-.1 7.1-1.9 13.2-5.2 18.8-3.2 5.7-7.8 10-13.2 13.2-5.5 3.2-11.8 4.7-18.8 4.7zm0-9.3c5.2 0 9.8-1.2 13.9-3.7 4-2.4 7.3-5.8 9.7-10s3.5-9 3.5-14.4c0-5.2-1.2-10-3.5-14.4-2.4-4.1-5.7-7.6-9.7-10-4-2.4-8.6-3.5-13.9-3.5-5.1 0-9.7 1.2-13.9 3.5-4.1 2.4-7.3 5.8-9.8 10-2.4 4.4-3.5 9-3.5 14.4s1.2 10.1 3.5 14.4c2.4 4.1 5.7 7.6 9.8 10 4.3 2.5 8.9 3.7 13.9 3.7zm-677.7-51.9h-46.1l-9.3 9.3v46.2c0 1.9 1.5 3.5 3.5 3.5h51.9c1.9 0 3.5-1.5 3.5-3.5v-51.9c.1-1.8-1.5-3.6-3.5-3.6zm-2 53.3H915v-41.5l5.9-5.9h41.5l.2 47.4zm-43.1-59.9h3.7v4.9h-3.7v-4.9zm5.7 0h3.7v4.9h-3.7v-4.9zm5.9 0h3.7v4.9h-3.7v-4.9zm5.8 0h3.7v4.9h-3.7v-4.9zm5.7 0h3.7v4.9h-3.7v-4.9zm11.5 0h3.7v4.9h-3.7v-4.9zm-5.8 0h3.7v4.9h-3.7v-4.9zm-26.2.3h-1.5v-9l-4.4-4.4H915v-1.5h1.8l5.2 5.2.1 9.7zm-9.3-11.5c-1.5 0-2.7-1.2-2.7-2.7s1.2-2.7 2.7-2.7 2.7 1.2 2.7 2.7c0 1.7-1 2.7-2.7 2.7zm0-3.7c-.7 0-1.2.6-1.2 1.2s.6 1.2 1.2 1.2 1.2-.6 1.2-1.2c0-.7-.4-1.2-1.2-1.2zm44 15.2h-1.5v-9.5l5.2-5.2h1.5v1.5h-1l-4.4 4.4v8.8h.2zm7.6-11.5c-1.5 0-2.7-1.2-2.7-2.7s1.2-2.7 2.7-2.7 2.7 1.2 2.7 2.7c0 1.7-1.2 2.7-2.7 2.7zm0-3.7c-.7 0-1.2.6-1.2 1.2s.6 1.2 1.2 1.2 1.2-.6 1.2-1.2c0-.7-.4-1.2-1.2-1.2zm-25 15.2H938v-13l5.4-5.2h1.5v1.5h-1.1l-4.5 4.4.1 12.3zm7.7-14.9c-1.5 0-2.7-1.2-2.7-2.7s1.2-2.7 2.7-2.7 2.7 1.2 2.7 2.7-1.1 2.7-2.7 2.7zm0-3.9c-.7 0-1.2.6-1.2 1.2s.6 1.2 1.2 1.2 1.2-.6 1.2-1.2c0-.5-.6-1.2-1.2-1.2zm3.9 18.8h-1.5v-13l4.7-4.7v-2l-5.9-5.9v-3.2h1.5v2.7l5.9 5.9v3.2l-4.7 4.7v12.3zm-23.1 0h-1.5v-15.3l-4.5-4.5h-5.1v-1.5h5.8l5.2 5.4.1 15.9zm4.4-22.7h1.5v22.5h-1.5v-22.5zm-17.6 4.9c-1.5 0-2.7-1.2-2.7-2.7 0-1.5 1.2-2.7 2.7-2.7s2.7 1.2 2.7 2.7c-.1 1.4-1.3 2.7-2.7 2.7zm0-4c-.7 0-1.2.6-1.2 1.2s.6 1.2 1.2 1.2 1.2-.6 1.2-1.2c-.1-.7-.6-1.2-1.2-1.2zm18.3 0c-1.5 0-2.7-1.2-2.7-2.7 0-1.5 1.2-2.7 2.7-2.7s2.7 1.2 2.7 2.7c0 1.5-1.2 2.7-2.7 2.7zm0-3.9c-.7 0-1.2.6-1.2 1.2s.6 1.2 1.2 1.2 1.2-.6 1.2-1.2-.6-1.2-1.2-1.2zm16-2.6c-1.5 0-2.7-1.2-2.7-2.7 0-1.5 1.2-2.7 2.7-2.7s2.7 1.2 2.7 2.7c0 1.5-1.2 2.7-2.7 2.7zm0-3.9c-.7 0-1.2.6-1.2 1.2s.6 1.2 1.2 1.2 1.2-.6 1.2-1.2-.5-1.2-1.2-1.2zm-5.3 24.6h1.5v7.4h-1.5v-7.4zm.7.8c-1.5 0-2.7-1.2-2.7-2.7 0-1.5 1.2-2.7 2.7-2.7s2.7 1.2 2.7 2.7c0 1.6-1.2 2.7-2.7 2.7zm0-3.8c-.7 0-1.2.6-1.2 1.2s.6 1.2 1.2 1.2 1.2-.6 1.2-1.2c0-.7-.5-1.2-1.2-1.2zm9.7 80h3.7v4.9h-3.7v-4.9zm-5.8 0h3.7v4.9h-3.7v-4.9zm-5.7 0h3.7v4.9h-3.7v-4.9zm-5.7 0h3.7v4.9h-3.7v-4.9zm-5.8 0h3.7v4.9h-3.7v-4.9zm-11.6 0h3.7v4.9h-3.7v-4.9zm5.7 0h3.7v4.9h-3.7v-4.9zm37 19.5h-1.5l-5.2-5.2v-9.7h1.5v9.1l4.4 4.4h1.1v1.5h-.3v-.1zm2.2 2c-1.5 0-2.7-1.2-2.7-2.7s1.2-2.7 2.7-2.7c1.5 0 2.7 1.2 2.7 2.7s-1.2 2.7-2.7 2.7zm0-3.9c-.7 0-1.2.6-1.2 1.2s.6 1.2 1.2 1.2 1.2-.6 1.2-1.2-.4-1.2-1.2-1.2zm-47.6 1.9H915v-1.5h1.2l4.4-4.4v-9.1h1.5v9.7l-5.3 5.3zm-4 2c-1.5 0-2.7-1.2-2.7-2.7s1.2-2.7 2.7-2.7 2.7 1.2 2.7 2.7-1 2.7-2.7 2.7zm0-3.9c-.7 0-1.2.6-1.2 1.2s.6 1.2 1.2 1.2 1.2-.6 1.2-1.2-.4-1.2-1.2-1.2zm21.4 5.3h-1.8v-1.5h1.2l4.4-4.5v-12.4h1.5v13.1l-5.3 5.3zm-3.8 2c-1.5 0-2.7-1.2-2.7-2.7s1.2-2.7 2.7-2.7 2.7 1.2 2.7 2.7-1.3 2.7-2.7 2.7zm0-3.9c-.7 0-1.2.6-1.2 1.2s.6 1.2 1.2 1.2 1.2-.6 1.2-1.2-.7-1.2-1.2-1.2zm-1.3 12.9h-1.5V390l-5.9-5.9v-3.2l4.7-4.9v-12.5h1.5v13.1l-4.7 4.7v2l5.9 5.9v3.5zm31.5-8h-5.8l-5.2-5.2v-16.1h1.5V379l4.4 4.4h5.2v1.3h-.1zm-16.9-21.3h1.5v22.5h-1.5v-22.5zm19.1 23.4c-1.5 0-2.7-1.2-2.7-2.7s1.2-2.7 2.7-2.7 2.7 1.2 2.7 2.7-1.3 2.7-2.7 2.7zm0-4c-.7 0-1.2.6-1.2 1.2s.6 1.2 1.2 1.2 1.2-.6 1.2-1.2c-.1-.6-.6-1.2-1.2-1.2zm-18.4 7.9c-1.5 0-2.7-1.2-2.7-2.7s1.2-2.7 2.7-2.7 2.7 1.2 2.7 2.7-1.2 2.7-2.7 2.7zm0-3.9c-.7 0-1.2.6-1.2 1.2s.6 1.2 1.2 1.2 1.2-.6 1.2-1.2-.5-1.2-1.2-1.2zm-16 10.5c-1.5 0-2.7-1.2-2.7-2.7s1.2-2.7 2.7-2.7 2.7 1.2 2.7 2.7-1.2 2.7-2.7 2.7zm0-3.9c-.7 0-1.2.6-1.2 1.2s.6 1.2 1.2 1.2 1.2-.6 1.2-1.2-.6-1.2-1.2-1.2zm3.9-30h1.5v7.4h-1.5v-7.4zm.7 12.2c-1.5 0-2.7-1.2-2.7-2.7s1.2-2.7 2.7-2.7 2.7 1.2 2.7 2.7-1.2 2.7-2.7 2.7zm0-3.8c-.7 0-1.2.6-1.2 1.2s.6 1.2 1.2 1.2 1.2-.6 1.2-1.2c0-.7-.6-1.2-1.2-1.2zm37-65.6h4.9v3.7H970v-3.7zm0 5.7h4.9v3.7H970v-3.7zm0 5.9h4.9v3.7H970v-3.7zm0 5.8h4.9v3.7H970v-3.7zm0 5.6h4.9v3.7H970v-3.7zm0 11.7h4.9v3.7H970v-3.7zm0-5.8h4.9v3.7H970v-3.7zm14.3-26.3h-9.5v-1.5h9l4.4-4.5v-1.1h1.5v1.5l-5.4 5.6zm4.3-6.5c-1.5 0-2.7-1.2-2.7-2.7s1.2-2.7 2.7-2.7 2.7 1.2 2.7 2.7c.2 1.6-1 2.7-2.7 2.7zm0-3.9c-.7 0-1.2.6-1.2 1.2s.6 1.2 1.2 1.2 1.2-.6 1.2-1.2-.3-1.2-1.2-1.2zm.9 50.6H988v-1.1l-4.4-4.5h-9v-1.5h9.5l5.2 5.2v1.8l.2.1zm-.9 4.9c-1.5 0-2.7-1.2-2.7-2.7s1.2-2.7 2.7-2.7 2.7 1.2 2.7 2.7c.2 1.5-1 2.7-2.7 2.7zm0-3.9c-.7 0-1.2.6-1.2 1.2s.6 1.2 1.2 1.2 1.2-.6 1.2-1.2-.3-1.2-1.2-1.2zm4.3-18.3h-1.5v-1.2l-4.4-4.4h-12.4v-1.5h13l5.2 5.2.1 1.9zm-.7 4.8c-1.5 0-2.7-1.2-2.7-2.7s1.2-2.7 2.7-2.7 2.7 1.2 2.7 2.7c0 1.4-1.3 2.7-2.7 2.7zm0-4c-.7 0-1.2.6-1.2 1.2s.6 1.2 1.2 1.2 1.2-.6 1.2-1.2c-.2-.6-.5-1.2-1.2-1.2zm2.9 10h-3.2l-4.7-4.9h-12.5v-1.5h13l4.7 4.9h2l5.9-5.9h3.2v1.5h-2.7l-5.7 5.9zm-4.3-28h-16.1V313H990l4.5-4.4v-5.2h1.5v5.8l-5.2 5.3zm-16.1 4.3h22.5v1.5h-22.5v-1.5zm20.5-14.7c-1.5 0-2.7-1.2-2.7-2.7s1.2-2.7 2.7-2.7 2.7 1.2 2.7 2.7-1.1 2.7-2.7 2.7zm0-4c-.7 0-1.2.6-1.2 1.2s.6 1.2 1.2 1.2 1.2-.6 1.2-1.2-.6-1.2-1.2-1.2zm3.9 22.2c-1.5 0-2.7-1.2-2.7-2.7s1.2-2.7 2.7-2.7 2.7 1.2 2.7 2.7c.2 1.5-1.1 2.7-2.7 2.7zm0-3.9c-.7 0-1.2.6-1.2 1.2s.6 1.2 1.2 1.2 1.2-.6 1.2-1.2-.5-1.2-1.2-1.2zm6.6 20.1c-1.5 0-2.7-1.2-2.7-2.7s1.2-2.7 2.7-2.7 2.7 1.2 2.7 2.7c.2 1.5-1.1 2.7-2.7 2.7zm0-3.9c-.7 0-1.2.6-1.2 1.2s.6 1.2 1.2 1.2 1.2-.6 1.2-1.2-.5-1.2-1.2-1.2zm-31-4.1h7.4v1.5h-7.4v-1.5zm9.4 3.4c-1.5 0-2.7-1.2-2.7-2.7s1.2-2.7 2.7-2.7 2.7 1.2 2.7 2.7c0 1.5-1.2 2.7-2.7 2.7zm0-4c-.7 0-1.2.6-1.2 1.2s.6 1.2 1.2 1.2 1.2-.6 1.2-1.2-.4-1.2-1.2-1.2zm-80.1 11h4.9v3.7H904v-3.7zm0-5.8h4.9v3.7H904v-3.7zm0-5.9h4.9v3.7H904v-3.7zm0-5.6h4.9v3.7H904v-3.7zm0-5.8h4.9v3.7H904v-3.7zm0-11.6h4.9v3.7H904v-3.7zm0 5.7h4.9v3.7H904v-3.7zM890.8 349h-1.5v-1.8l5.2-5.2h9.7v1.5h-9l-4.5 4.5v1h.1zm-.7 4.9c-1.5 0-2.7-1.2-2.7-2.7s1.2-2.7 2.7-2.7c1.5 0 2.7 1.2 2.7 2.7s-1.2 2.7-2.7 2.7zm0-3.9c-.7 0-1.2.6-1.2 1.2s.6 1.2 1.2 1.2 1.2-.6 1.2-1.2c-.1-.5-.5-1.2-1.2-1.2zm14.1-41.2h-9.7l-5.2-5.4v-1.5h1.5v1.1l4.5 4.5h9v1.3zm-14.1-6.5c-1.5 0-2.7-1.2-2.7-2.7s1.2-2.7 2.7-2.7c1.5 0 2.7 1.2 2.7 2.7 0 1.6-1.2 2.7-2.7 2.7zm0-3.9c-.7 0-1.2.6-1.2 1.2s.6 1.2 1.2 1.2 1.2-.6 1.2-1.2c-.1-.6-.5-1.2-1.2-1.2zm14.1 27.8h-13l-5.4-5.2v-1.8h1.5v1.1l4.5 4.5h12.4v1.4zm-17.6-6.5c-1.5 0-2.7-1.2-2.7-2.7s1.2-2.7 2.7-2.7c1.5 0 2.7 1.2 2.7 2.7s-1.1 2.7-2.7 2.7zm0-3.9c-.7 0-1.2.6-1.2 1.2s.6 1.2 1.2 1.2 1.2-.6 1.2-1.2-.4-1.2-1.2-1.2zm-8.2 0h-3.2v-1.5h2.5l5.9-5.9h3.2l4.9 4.7h12.4v1.5h-13l-4.9-4.7h-1.9l-5.9 5.9zm6 31.5H883v-5.8l5.2-5.4h16.1v1.5h-15.4l-4.4 4.5-.1 5.2zm-2.7-16.8h22.5v1.5h-22.5v-1.5zm2 21.7c-1.5 0-2.7-1.2-2.7-2.7s1.2-2.7 2.7-2.7 2.7 1.2 2.7 2.7c0 1.4-1.2 2.7-2.7 2.7zm0-4c-.7 0-1.2.6-1.2 1.2s.6 1.2 1.2 1.2 1.2-.6 1.2-1.2-.6-1.2-1.2-1.2zm-4.1-14.3c-1.5 0-2.7-1.2-2.7-2.7s1.2-2.7 2.7-2.7 2.7 1.2 2.7 2.7c.2 1.5-1.2 2.7-2.7 2.7zm0-4c-.7 0-1.2.6-1.2 1.2s.6 1.2 1.2 1.2 1.2-.6 1.2-1.2-.4-1.2-1.2-1.2zm-6.5-12.2c-1.5 0-2.7-1.2-2.7-2.7 0-1.5 1.2-2.7 2.7-2.7s2.7 1.2 2.7 2.7c.1 1.5-1.3 2.7-2.7 2.7zm0-3.9c-.7 0-1.2.6-1.2 1.2s.6 1.2 1.2 1.2 1.2-.6 1.2-1.2-.5-1.2-1.2-1.2zm23.7 5h7.4v1.5h-7.4v-1.5zm-2.1 3.5c-1.5 0-2.7-1.2-2.7-2.7s1.2-2.7 2.7-2.7 2.7 1.2 2.7 2.7c.1 1.5-1.2 2.7-2.7 2.7zm0-3.9c-.7 0-1.2.6-1.2 1.2s.6 1.2 1.2 1.2 1.2-.6 1.2-1.2c-.1-.6-.4-1.2-1.2-1.2zm44.2 88.2c-44.9 0-81.1-36.4-81.1-81.1 0-44.9 36.4-81.1 81.1-81.1 44.9 0 81.1 36.4 81.1 81.1 0 44.8-36.4 81.1-81.1 81.1zm0-155c-40.7 0-73.8 33-73.8 73.8s33 73.8 73.8 73.8 73.8-33 73.8-73.8-33.3-73.8-73.8-73.8zM784.5 355c-1.5 0-2.7-.5-3.7-1.3-1.1-.8-1.3-2.2-1.3-3.7v-94.6c0-1.5.5-2.7 1.3-3.7s2.2-1.3 3.7-1.3 2.7.5 3.7 1.3 1.3 2.2 1.3 3.7v94.7c0 1.5-.5 2.7-1.3 3.7-.7 1.1-2.1 1.2-3.7 1.2zm3.4-24.4-6.3-6.8 45.9-41.5c1.1-1.1 2.2-1.5 3.4-1.3 1.2 0 2.2.6 3.2 1.5 1.1 1.1 1.5 2.2 1.3 3.4 0 1.2-.6 2.2-1.5 3.2l-46 41.5zm46.3 24c-1.2 1.1-2.4 1.3-3.5 1.3-1.2-.1-2.4-.7-3.2-1.9l-29.8-36.8 7.3-6.4 30.3 37.1c.8 1.1 1.3 2.2 1.2 3.4-.6 1.1-1.2 2.1-2.3 3.3z"/>
</svg>
